# xmcd
# 
# Track frame offsets:
#     187
#     14820
#     30817
#     47650
#     61687
#     75960
#     95967
#     110407
#     128197
#     142470
#     154400
#     173942
#     193992
#     214052
#     230497
#     246160
#     258305
#     275530
#     285872
#     297297
# 
# Disc length: 4195
# 
# Revision: 2
# Processed by: cddbd v1.5.2PL0 Copyright (c) Steve Scherf et al.
# Submitted via: fre:ac v1.0.31
# 
DISCID=2a106114
DTITLE=Various Artist - swing jazz
DYEAR=2005
DGENRE=Jazz
TTITLE0=グレン・ミラー・オーケストラ - 真珠の首飾り
TTITLE1=グレン・ミラー・オーケストラ - イン・ザ・ムード
TTITLE2=グレン・ミラー・オーケストラ - ムーンライト・セレナーデ
TTITLE3=グレン・ミラー・オーケストラ - 茶色の小瓶
TTITLE4=グレン・ミラー・オーケストラ - アメリカン・パトロール
TTITLE5=ベニー・グッドマン楽団 - シング・シング・シング
TTITLE6=ベニー・グッドマン楽団 - 天使は歌う
TTITLE7=ベニー・グッドマン楽団 - ドント・ビー・ザット・ウェイ
TTITLE8=ベニー・グッドマン楽団 - ロッホ・ロモンド
TTITLE9=ベニー・グッドマン楽団 - ビューグル・コール・ラグ
TTITLE10=シャープス＆フラッツ - A列車で行こう
TTITLE11=シャープス＆フラッツ - ザ・ムーチ
TTITLE12=シャープス＆フラッツ - キャラバン
TTITLE13=シャープス＆フラッツ - ムード・インディゴ
TTITLE14=シャープス＆フラッツ - サテン・ドール
TTITLE15=トミー・ドーシー楽団 - 明るい表通りで
TTITLE16=オムニバストミー・ドーシー楽団 - 僕はセンチになったよ
TTITLE17=トミー・ドーシー楽団 - スワニー・リバー
TTITLE18=トミー・ドーシー楽団 - ブギー・ウギー
TTITLE19=トミー・ドーシー楽団 - アイル・ネバー・スマイル・アゲイン
EXTD=2005.3.24\nVICJ-41111\nビクターエンタテインメント\n
EXTT0=
EXTT1=
EXTT2=
EXTT3=
EXTT4=
EXTT5=
EXTT6=
EXTT7=
EXTT8=
EXTT9=
EXTT10=
EXTT11=
EXTT12=
EXTT13=
EXTT14=
EXTT15=
EXTT16=
EXTT17=
EXTT18=
EXTT19=
PLAYORDER=
